TITLE ""
FILE "2Q_t_0601-0617.mp3" MP3
  TRACK 01 AUDIO
    TITLE "2Q_t_0601-0617_01"
    INDEX 01 00:00:00
  TRACK 02 AUDIO
    TITLE "2Q_t_0601-0617_02"
    INDEX 01 00:01:41
  TRACK 03 AUDIO
    TITLE "2Q_t_0601-0617_03"
    INDEX 01 00:02:11
  TRACK 04 AUDIO
    TITLE "2Q_t_0601-0617_04"
    INDEX 01 00:03:18
  TRACK 05 AUDIO
    TITLE "2Q_t_0601-0617_05"
    INDEX 01 00:03:63
  TRACK 06 AUDIO
    TITLE "2Q_t_0601-0617_06"
    INDEX 01 00:04:61
  TRACK 07 AUDIO
    TITLE "2Q_t_0601-0617_07"
    INDEX 01 00:05:33
  TRACK 08 AUDIO
    TITLE "2Q_t_0601-0617_08"
    INDEX 01 00:09:56
  TRACK 09 AUDIO
    TITLE "2Q_t_0601-0617_09"
    INDEX 01 00:10:26
  TRACK 10 AUDIO
    TITLE "2Q_t_0601-0617_10"
    INDEX 01 00:11:30
  TRACK 11 AUDIO
    TITLE "2Q_t_0601-0617_11"
    INDEX 01 00:12:00
  TRACK 12 AUDIO
    TITLE "2Q_t_0601-0617_12"
    INDEX 01 00:14:44
  TRACK 13 AUDIO
    TITLE "2Q_t_0601-0617_13"
    INDEX 01 00:15:14
  TRACK 14 AUDIO
    TITLE "2Q_t_0601-0617_14"
    INDEX 01 00:16:27
  TRACK 15 AUDIO
    TITLE "2Q_t_0601-0617_15"
    INDEX 01 00:16:74
  TRACK 16 AUDIO
    TITLE "2Q_t_0601-0617_16"
    INDEX 01 00:20:09
  TRACK 17 AUDIO
    TITLE "2Q_t_0601-0617_17"
    INDEX 01 00:20:54
  TRACK 18 AUDIO
    TITLE "2Q_t_0601-0617_18"
    INDEX 01 00:21:52
  TRACK 19 AUDIO
    TITLE "2Q_t_0601-0617_19"
    INDEX 01 00:22:31
  TRACK 20 AUDIO
    TITLE "2Q_t_0601-0617_20"
    INDEX 01 00:25:46
  TRACK 21 AUDIO
    TITLE "2Q_t_0601-0617_21"
    INDEX 01 00:26:14
  TRACK 22 AUDIO
    TITLE "2Q_t_0601-0617_22"
    INDEX 01 00:27:13
  TRACK 23 AUDIO
    TITLE "2Q_t_0601-0617_23"
    INDEX 01 00:27:60
  TRACK 24 AUDIO
    TITLE "2Q_t_0601-0617_24"
    INDEX 01 00:30:47
  TRACK 25 AUDIO
    TITLE "2Q_t_0601-0617_25"
    INDEX 01 00:31:19
  TRACK 26 AUDIO
    TITLE "2Q_t_0601-0617_26"
    INDEX 01 00:32:34
  TRACK 27 AUDIO
    TITLE "2Q_t_0601-0617_27"
    INDEX 01 00:33:06
  TRACK 28 AUDIO
    TITLE "2Q_t_0601-0617_28"
    INDEX 01 00:35:32
  TRACK 29 AUDIO
    TITLE "2Q_t_0601-0617_29"
    INDEX 01 00:36:02
  TRACK 30 AUDIO
    TITLE "2Q_t_0601-0617_30"
    INDEX 01 00:37:13
  TRACK 31 AUDIO
    TITLE "2Q_t_0601-0617_31"
    INDEX 01 00:37:60
  TRACK 32 AUDIO
    TITLE "2Q_t_0601-0617_32"
    INDEX 01 00:42:07
  TRACK 33 AUDIO
    TITLE "2Q_t_0601-0617_33"
    INDEX 01 00:42:52
  TRACK 34 AUDIO
    TITLE "2Q_t_0601-0617_34"
    INDEX 01 00:43:63
  TRACK 35 AUDIO
    TITLE "2Q_t_0601-0617_35"
    INDEX 01 00:44:35
  TRACK 36 AUDIO
    TITLE "2Q_t_0601-0617_36"
    INDEX 01 00:48:09
  TRACK 37 AUDIO
    TITLE "2Q_t_0601-0617_37"
    INDEX 01 00:48:52
  TRACK 38 AUDIO
    TITLE "2Q_t_0601-0617_38"
    INDEX 01 00:49:70
  TRACK 39 AUDIO
    TITLE "2Q_t_0601-0617_39"
    INDEX 01 00:50:43
  TRACK 40 AUDIO
    TITLE "2Q_t_0601-0617_40"
    INDEX 01 00:53:10
  TRACK 41 AUDIO
    TITLE "2Q_t_0601-0617_41"
    INDEX 01 00:53:57
  TRACK 42 AUDIO
    TITLE "2Q_t_0601-0617_42"
    INDEX 01 00:54:55
  TRACK 43 AUDIO
    TITLE "2Q_t_0601-0617_43"
    INDEX 01 00:55:25
  TRACK 44 AUDIO
    TITLE "2Q_t_0601-0617_44"
    INDEX 01 00:58:04
  TRACK 45 AUDIO
    TITLE "2Q_t_0601-0617_45"
    INDEX 01 00:58:49
  TRACK 46 AUDIO
    TITLE "2Q_t_0601-0617_46"
    INDEX 01 00:59:56
  TRACK 47 AUDIO
    TITLE "2Q_t_0601-0617_47"
    INDEX 01 01:00:26
  TRACK 48 AUDIO
    TITLE "2Q_t_0601-0617_48"
    INDEX 01 01:04:32
  TRACK 49 AUDIO
    TITLE "2Q_t_0601-0617_49"
    INDEX 01 01:05:02
  TRACK 50 AUDIO
    TITLE "2Q_t_0601-0617_50"
    INDEX 01 01:06:09
  TRACK 51 AUDIO
    TITLE "2Q_t_0601-0617_51"
    INDEX 01 01:06:56
  TRACK 52 AUDIO
    TITLE "2Q_t_0601-0617_52"
    INDEX 01 01:08:73
  TRACK 53 AUDIO
    TITLE "2Q_t_0601-0617_53"
    INDEX 01 01:09:41
  TRACK 54 AUDIO
    TITLE "2Q_t_0601-0617_54"
    INDEX 01 01:10:60
  TRACK 55 AUDIO
    TITLE "2Q_t_0601-0617_55"
    INDEX 01 01:11:34
  TRACK 56 AUDIO
    TITLE "2Q_t_0601-0617_56"
    INDEX 01 01:13:01
  TRACK 57 AUDIO
    TITLE "2Q_t_0601-0617_57"
    INDEX 01 01:13:45
  TRACK 58 AUDIO
    TITLE "2Q_t_0601-0617_58"
    INDEX 01 01:14:69
  TRACK 59 AUDIO
    TITLE "2Q_t_0601-0617_59"
    INDEX 01 01:15:45
  TRACK 60 AUDIO
    TITLE "2Q_t_0601-0617_60"
    INDEX 01 01:18:40
  TRACK 61 AUDIO
    TITLE "2Q_t_0601-0617_61"
    INDEX 01 01:19:08
  TRACK 62 AUDIO
    TITLE "2Q_t_0601-0617_62"
    INDEX 01 01:20:07
  TRACK 63 AUDIO
    TITLE "2Q_t_0601-0617_63"
    INDEX 01 01:20:54
  TRACK 64 AUDIO
    TITLE "2Q_t_0601-0617_64"
    INDEX 01 01:23:31
  TRACK 65 AUDIO
    TITLE "2Q_t_0601-0617_65"
    INDEX 01 01:23:74
  TRACK 66 AUDIO
    TITLE "2Q_t_0601-0617_66"
    INDEX 01 01:25:52
  TRACK 67 AUDIO
    TITLE "2Q_t_0601-0617_67"
    INDEX 01 01:26:22
  TRACK 68 AUDIO
    TITLE "2Q_t_0601-0617_68"
    INDEX 01 01:27:31
  TRACK 69 AUDIO
    TITLE "2Q_t_0601-0617_69"
    INDEX 01 01:28:03
  TRACK 70 AUDIO
    TITLE "2Q_t_0601-0617_70"
    INDEX 01 01:29:14
  TRACK 71 AUDIO
    TITLE "2Q_t_0601-0617_71"
    INDEX 01 01:29:65
  TRACK 72 AUDIO
    TITLE "2Q_t_0601-0617_72"
    INDEX 01 01:32:32
